<?xml version="1.0" encoding="UTF-8" standalone="no"?>
<!-- Created with Inkscape (http://www.inkscape.org/) -->

<svg
   version="1.1"
   id="svg2"
   xml:space="preserve"
   width="644.284"
   height="169.436"
   viewBox="0 0 644.284 169.436"
   sodipodi:docname="Logo_Click MVP_final curvas.svg"
   inkscape:version="1.1.1 (3bf5ae0d25, 2021-09-20)"
   xmlns:inkscape="http://www.inkscape.org/namespaces/inkscape"
   xmlns:sodipodi="http://sodipodi.sourceforge.net/DTD/sodipodi-0.dtd"
   xmlns="http://www.w3.org/2000/svg"
   xmlns:svg="http://www.w3.org/2000/svg"><defs
     id="defs6"><clipPath
       clipPathUnits="userSpaceOnUse"
       id="clipPath16"><path
         d="M 0,127.077 H 483.214 V 0 H 0 Z"
         id="path14" /></clipPath></defs><sodipodi:namedview
     id="namedview4"
     pagecolor="#ffffff"
     bordercolor="#666666"
     borderopacity="1.0"
     inkscape:pageshadow="2"
     inkscape:pageopacity="0.0"
     inkscape:pagecheckerboard="0"
     showgrid="false"
     inkscape:zoom="2.6494527"
     inkscape:cx="321.95328"
     inkscape:cy="84.545762"
     inkscape:window-width="3840"
     inkscape:window-height="1514"
     inkscape:window-x="-11"
     inkscape:window-y="-11"
     inkscape:window-maximized="1"
     inkscape:current-layer="g8" /><g
     id="g8"
     inkscape:groupmode="layer"
     inkscape:label="Logo_Click MVP_final curvas"
     transform="matrix(1.3333333,0,0,-1.3333333,0,169.436)"><g
       id="g157"
       transform="translate(0.56615463,-1.4153867)"><g
         id="g131"
         transform="matrix(1.1014728,0,0,1.1014728,-15.89231,-4.587172)"><g
           id="g18"
           transform="translate(69.8785,35.809)"><path
             d="m 0,0 c -1.502,-0.501 -5.652,-1.216 -10.66,-1.216 -10.876,0 -21.179,5.724 -21.179,22.752 v 9.015 c 0,17.029 10.303,22.681 21.179,22.681 5.008,0 9.158,-0.715 10.66,-1.216 1.002,-0.287 1.574,-0.573 1.574,-1.574 v -6.941 c 0,-0.858 -0.428,-1.43 -1.359,-1.43 H 0 c -2.719,0.214 -6.653,0.572 -10.589,0.572 -4.936,0 -8.872,-2.576 -8.872,-12.092 v -9.015 c 0,-9.515 3.936,-12.092 8.872,-12.092 3.936,0 7.87,0.359 10.589,0.573 h 0.215 c 0.931,0 1.359,-0.573 1.359,-1.431 V 1.646 C 1.574,0.645 1.002,0.286 0,0"
             style="fill:#3350b9;fill-opacity:1;fill-rule:nonzero;stroke:none"
             id="path20" /></g><g
           id="g22"
           transform="translate(88.9107,35.2367)"><path
             d="m 0,0 h -8.729 c -0.787,0 -1.502,0.716 -1.502,1.503 v 51.944 c 0,0.787 0.715,1.43 1.502,1.43 H 0 c 0.787,0 1.359,-0.643 1.359,-1.43 V 1.503 C 1.359,0.716 0.787,0 0,0"
             style="fill:#3350b9;fill-opacity:1;fill-rule:nonzero;stroke:none"
             id="path24" /></g><g
           id="g26"
           transform="translate(109.3023,35.2367)"><path
             d="m 0,0 h -8.729 c -0.788,0 -1.431,0.644 -1.431,1.431 v 38.135 c 0,0.788 0.643,1.431 1.431,1.431 H 0 c 0.787,0 1.431,-0.643 1.431,-1.431 V 1.431 C 1.431,0.644 0.787,0 0,0 m 0.286,45.648 h -9.302 c -0.787,0 -1.43,0.644 -1.43,1.431 v 6.654 c 0,0.787 0.643,1.431 1.43,1.431 h 9.302 c 0.787,0 1.431,-0.644 1.431,-1.431 v -6.654 c 0,-0.787 -0.644,-1.431 -1.431,-1.431"
             style="fill:#3350b9;fill-opacity:1;fill-rule:nonzero;stroke:none"
             id="path28" /></g><g
           id="g30"
           transform="translate(144.7183,35.6664)"><path
             d="m 0,0 c -2.003,-0.501 -5.223,-1.073 -9.516,-1.073 -10.088,0 -16.671,6.439 -16.671,18.101 v 6.01 c 0,11.663 6.583,18.102 16.671,18.102 4.293,0 7.513,-0.573 9.516,-1.073 1.073,-0.286 1.503,-0.573 1.503,-1.646 v -6.368 c 0,-0.715 -0.645,-1.216 -1.359,-1.216 H 0 c -2.647,0.286 -4.65,0.501 -8.729,0.501 -3.219,0 -5.867,-1.932 -5.867,-8.3 v -6.01 c 0,-6.368 2.648,-8.299 5.867,-8.299 4.079,0 6.082,0.214 8.729,0.5 h 0.144 c 0.714,0 1.359,-0.5 1.359,-1.216 V 1.646 C 1.503,0.572 1.073,0.286 0,0"
             style="fill:#3350b9;fill-opacity:1;fill-rule:nonzero;stroke:none"
             id="path32" /></g><g
           id="g34"
           transform="translate(188.8648,74.7313)"><path
             d="m 0,0 -13.308,-18.102 13.237,-19.89 c 0.142,-0.143 0.142,-0.358 0.142,-0.573 0,-0.5 -0.357,-0.93 -0.929,-0.93 h -10.804 c -0.787,0 -1.217,0.144 -1.789,1.002 l -10.303,16.814 v -16.313 c 0,-0.787 -0.643,-1.503 -1.431,-1.503 h -8.657 c -0.787,0 -1.503,0.716 -1.503,1.503 v 51.944 c 0,0.787 0.716,1.431 1.503,1.431 h 8.657 c 0.788,0 1.431,-0.644 1.431,-1.431 v -29.908 l 10.875,16.385 c 0.572,0.859 1.288,1.073 1.86,1.073 h 10.232 c 0.644,0 1.073,-0.357 1.073,-0.786 C 0.286,0.501 0.215,0.286 0,0"
             style="fill:#3350b9;fill-opacity:1;fill-rule:nonzero;stroke:none"
             id="path36" /></g><g
           id="g38"
           transform="translate(243.4576,35.2367)"><path
             d="m 0,0 h -9.444 c -0.645,0 -1.146,0.644 -1.146,1.431 v 29.836 c 0,0.501 -0.214,0.572 -0.357,0.572 -0.215,0 -0.358,-0.143 -0.573,-0.501 l -6.439,-11.805 c -0.501,-0.859 -1.217,-1.217 -2.146,-1.217 h -5.724 c -0.931,0 -1.646,0.358 -2.147,1.217 l -6.439,11.805 c -0.215,0.358 -0.357,0.501 -0.572,0.501 -0.144,0 -0.359,-0.071 -0.359,-0.572 V 1.431 C -35.346,0.644 -35.846,0 -36.49,0 h -9.445 c -0.572,0 -1.215,0.215 -1.215,1.002 v 49.726 c 0,1.502 1.073,2.433 2.575,2.433 h 6.725 c 1.503,0 2.504,-0.716 3.149,-1.932 l 10.946,-20.392 c 0.287,-0.572 0.501,-0.93 0.787,-0.93 0.286,0 0.501,0.358 0.787,0.93 l 10.948,20.392 c 0.643,1.216 1.645,1.932 3.148,1.932 h 6.726 c 1.502,0 2.575,-1.002 2.575,-2.505 V 1.002 C 1.216,0.215 0.572,0 0,0"
             style="fill:#00ff00;fill-opacity:1;fill-rule:nonzero;stroke:none"
             id="path40" /></g><g
           id="g42"
           transform="translate(295.5464,86.8949)"><path
             d="m 0,0 -10.661,-44.36 c -1.646,-6.869 -6.869,-7.942 -11.806,-7.942 -4.936,0 -10.231,1.073 -11.877,7.942 L -45.005,0 c 0,0.143 -0.071,0.214 -0.071,0.357 0,0.644 0.572,1.145 1.288,1.145 h 9.945 c 0.716,0 1.288,-0.572 1.431,-1.288 l 8.943,-41.283 c 0.144,-0.787 0.359,-1.074 1.002,-1.074 0.645,0 0.859,0.287 1.002,1.074 l 8.944,41.283 c 0.143,0.716 0.643,1.288 1.359,1.288 H -1.146 C -0.43,1.502 0.071,1.073 0.071,0.357 0.071,0.286 0,0.143 0,0"
             style="fill:#00ff00;fill-opacity:1;fill-rule:nonzero;stroke:none"
             id="path44" /></g><g
           id="g46"
           transform="translate(328.9595,71.7977)"><path
             d="m 0,0 c 0,5.08 -3.148,7.083 -9.158,7.083 -1.002,0 -4.937,-0.143 -5.796,-0.214 V -7.727 c 0.787,-0.071 5.009,-0.143 5.796,-0.143 6.368,0 9.158,2.361 9.158,7.226 z m -9.158,-17.958 c -1.717,0 -4.007,0.143 -5.796,0.214 V -35.13 c 0,-0.787 -0.644,-1.431 -1.431,-1.431 h -9.229 c -0.787,0 -1.431,0.572 -1.431,1.359 v 48.081 c 0,2.433 1.001,3.077 3.22,3.434 3.648,0.573 9.372,0.931 14.523,0.931 10.805,0 21.465,-3.793 21.465,-17.244 v -0.644 c 0,-13.379 -10.66,-17.314 -21.321,-17.314"
             style="fill:#00ff00;fill-opacity:1;fill-rule:nonzero;stroke:none"
             id="path48" /></g></g><g
         id="g113"
         transform="matrix(0.94770985,0,0,0.93390281,32.99511,4.6042597)"><g
           id="g50"
           transform="translate(413.2945,64.7142)"><path
             d="M 0,0 -27.838,16.219 V -16.397 Z"
             style="fill:#00ff00;fill-opacity:1;fill-rule:nonzero;stroke:none"
             id="path52" /></g><g
           id="g54"
           transform="translate(450.5498,67.7142)"><path
             d="m 0,0 -59.903,34.9 c -1.068,0.621 -2.387,0.626 -3.458,0.01 -1.072,-0.616 -1.733,-1.758 -1.733,-2.993 V 21.211 L -28.687,0 c 1.06,-0.617 1.712,-1.75 1.715,-2.975 0.003,-1.226 -0.644,-2.361 -1.7,-2.983 l -36.422,-21.454 v -10.856 c 0,-1.238 0.664,-2.382 1.74,-2.997 0.531,-0.303 1.122,-0.455 1.713,-0.455 0.606,0 1.212,0.159 1.752,0.477 L 0.014,-5.958 c 1.056,0.622 1.704,1.757 1.7,2.983 C 1.711,-1.75 1.059,-0.617 0,0"
             style="fill:#3350b9;fill-opacity:1;fill-rule:nonzero;stroke:none"
             id="path56" /></g><g
           id="g58"
           transform="translate(363.6753,35.4877)"><path
             d="M 0,0 V 58.135 L 21.781,45.446 v 7.992 L -1.714,67.126 c -1.068,0.622 -2.388,0.626 -3.459,0.01 -1.072,-0.615 -1.732,-1.757 -1.732,-2.993 V -6.041 c 0,-1.239 0.663,-2.383 1.739,-2.998 0.531,-0.303 1.123,-0.455 1.713,-0.455 0.606,0 1.212,0.16 1.753,0.478 L 21.781,4.815 v 8.014 z"
             style="fill:#3350b9;fill-opacity:1;fill-rule:nonzero;stroke:none"
             id="path60" /></g></g></g></g></svg>
